REM DIRINDEX 1\2,1\3,1\4,1\6,1\5\7,1\5\8
REM DIRNAME cjc114,folder01,folder02,folder03,folder04,folder05,folder06,folder07
TITLE ""
FILE "DB4500_5th_6C_23.mp3" MP3
  TRACK 01 AUDIO
    TITLE "0:"
    INDEX 01 00:00:00
  TRACK 02 AUDIO
    TITLE "6:cjc114_4009"
    INDEX 01 00:00:05
  TRACK 03 AUDIO
    TITLE "0:"
    INDEX 01 00:01:38
  TRACK 04 AUDIO
    TITLE "2:cjc114_4010"
    INDEX 01 00:02:10
  TRACK 05 AUDIO
    TITLE "0:"
    INDEX 01 00:03:15
  TRACK 06 AUDIO
    TITLE "3:cjc114_4011"
    INDEX 01 00:03:33
  TRACK 07 AUDIO
    TITLE "0:"
    INDEX 01 00:04:56
  TRACK 08 AUDIO
    TITLE "4:cjc114_4012"
    INDEX 01 00:04:70
  TRACK 09 AUDIO
    TITLE "0:"
    INDEX 01 00:08:38
  TRACK 10 AUDIO
    TITLE "2:cjc114_4013"
    INDEX 01 00:09:02
  TRACK 11 AUDIO
    TITLE "0:"
    INDEX 01 00:10:06
  TRACK 12 AUDIO
    TITLE "3:cjc114_4014"
    INDEX 01 00:10:19
  TRACK 13 AUDIO
    TITLE "0:"
    INDEX 01 00:11:40
  TRACK 14 AUDIO
    TITLE "4:cjc114_4015"
    INDEX 01 00:11:52
  TRACK 15 AUDIO
    TITLE "0:"
    INDEX 01 00:13:63
  TRACK 16 AUDIO
    TITLE "2:cjc114_4016"
    INDEX 01 00:14:25
  TRACK 17 AUDIO
    TITLE "0:"
    INDEX 01 00:15:38
  TRACK 18 AUDIO
    TITLE "3:cjc114_4017"
    INDEX 01 00:15:52
  TRACK 19 AUDIO
    TITLE "0:"
    INDEX 01 00:17:06
  TRACK 20 AUDIO
    TITLE "4:cjc114_4018"
    INDEX 01 00:17:21
  TRACK 21 AUDIO
    TITLE "0:"
    INDEX 01 00:19:69
  TRACK 22 AUDIO
    TITLE "2:cjc114_4019"
    INDEX 01 00:20:30
  TRACK 23 AUDIO
    TITLE "0:"
    INDEX 01 00:21:31
  TRACK 24 AUDIO
    TITLE "3:cjc114_4020"
    INDEX 01 00:21:47
  TRACK 25 AUDIO
    TITLE "0:"
    INDEX 01 00:22:68
  TRACK 26 AUDIO
    TITLE "4:cjc114_4021"
    INDEX 01 00:23:04
  TRACK 27 AUDIO
    TITLE "0:"
    INDEX 01 00:25:74
  TRACK 28 AUDIO
    TITLE "2:cjc114_4022"
    INDEX 01 00:26:36
  TRACK 29 AUDIO
    TITLE "0:"
    INDEX 01 00:27:53
  TRACK 30 AUDIO
    TITLE "3:cjc114_4023"
    INDEX 01 00:27:67
  TRACK 31 AUDIO
    TITLE "0:"
    INDEX 01 00:29:15
  TRACK 32 AUDIO
    TITLE "4:cjc114_4024"
    INDEX 01 00:29:27
  TRACK 33 AUDIO
    TITLE "0:"
    INDEX 01 00:33:01
  TRACK 34 AUDIO
    TITLE "2:cjc114_4025"
    INDEX 01 00:33:38
  TRACK 35 AUDIO
    TITLE "0:"
    INDEX 01 00:34:36
  TRACK 36 AUDIO
    TITLE "3:cjc114_4026"
    INDEX 01 00:34:49
  TRACK 37 AUDIO
    TITLE "0:"
    INDEX 01 00:36:17
  TRACK 38 AUDIO
    TITLE "4:cjc114_4027"
    INDEX 01 00:36:33
  TRACK 39 AUDIO
    TITLE "0:"
    INDEX 01 00:40:13
  TRACK 40 AUDIO
    TITLE "2:cjc114_4028"
    INDEX 01 00:40:50
  TRACK 41 AUDIO
    TITLE "0:"
    INDEX 01 00:41:49
  TRACK 42 AUDIO
    TITLE "3:cjc114_4029"
    INDEX 01 00:41:61
  TRACK 43 AUDIO
    TITLE "0:"
    INDEX 01 00:42:57
  TRACK 44 AUDIO
    TITLE "4:cjc114_4030"
    INDEX 01 00:42:70
  TRACK 45 AUDIO
    TITLE "0:"
    INDEX 01 00:47:27
  TRACK 46 AUDIO
    TITLE "2:cjc114_4031"
    INDEX 01 00:47:60
  TRACK 47 AUDIO
    TITLE "0:"
    INDEX 01 00:48:59
  TRACK 48 AUDIO
    TITLE "3:cjc114_4032"
    INDEX 01 00:48:73
  TRACK 49 AUDIO
    TITLE "0:"
    INDEX 01 00:49:63
  TRACK 50 AUDIO
    TITLE "4:cjc114_4033"
    INDEX 01 00:50:01
  TRACK 51 AUDIO
    TITLE "0:"
    INDEX 01 00:52:39
  TRACK 52 AUDIO
    TITLE "2:cjc114_4034"
    INDEX 01 00:53:00
  TRACK 53 AUDIO
    TITLE "0:"
    INDEX 01 00:54:01
  TRACK 54 AUDIO
    TITLE "3:cjc114_4035"
    INDEX 01 00:54:15
  TRACK 55 AUDIO
    TITLE "0:"
    INDEX 01 00:55:22
  TRACK 56 AUDIO
    TITLE "4:cjc114_4036"
    INDEX 01 00:55:32
  TRACK 57 AUDIO
    TITLE "0:"
    INDEX 01 00:58:60
  TRACK 58 AUDIO
    TITLE "2:cjc114_4037"
    INDEX 01 00:59:22
  TRACK 59 AUDIO
    TITLE "0:"
    INDEX 01 01:00:41
  TRACK 60 AUDIO
    TITLE "3:cjc114_4038"
    INDEX 01 01:00:57
  TRACK 61 AUDIO
    TITLE "0:"
    INDEX 01 01:01:62
  TRACK 62 AUDIO
    TITLE "4:cjc114_4039"
    INDEX 01 01:02:01
  TRACK 63 AUDIO
    TITLE "0:"
    INDEX 01 01:05:54
  TRACK 64 AUDIO
    TITLE "2:cjc114_4040"
    INDEX 01 01:06:14
  TRACK 65 AUDIO
    TITLE "0:"
    INDEX 01 01:07:41
  TRACK 66 AUDIO
    TITLE "3:cjc114_4041"
    INDEX 01 01:07:57
  TRACK 67 AUDIO
    TITLE "0:"
    INDEX 01 01:09:18
  TRACK 68 AUDIO
    TITLE "4:cjc114_4042"
    INDEX 01 01:09:32
  TRACK 69 AUDIO
    TITLE "0:"
    INDEX 01 01:14:33
  TRACK 70 AUDIO
    TITLE "2:cjc114_4043"
    INDEX 01 01:14:70
  TRACK 71 AUDIO
    TITLE "0:"
    INDEX 01 01:16:09
  TRACK 72 AUDIO
    TITLE "3:cjc114_4044"
    INDEX 01 01:16:22
  TRACK 73 AUDIO
    TITLE "0:"
    INDEX 01 01:17:28
  TRACK 74 AUDIO
    TITLE "4:cjc114_4045"
    INDEX 01 01:17:43
  TRACK 75 AUDIO
    TITLE "0:"
    INDEX 01 01:21:04
  TRACK 76 AUDIO
    TITLE "2:cjc114_4046"
    INDEX 01 01:21:39
  TRACK 77 AUDIO
    TITLE "0:"
    INDEX 01 01:22:56
  TRACK 78 AUDIO
    TITLE "3:cjc114_4047"
    INDEX 01 01:22:70
  TRACK 79 AUDIO
    TITLE "0:"
    INDEX 01 01:24:16
  TRACK 80 AUDIO
    TITLE "4:cjc114_4048"
    INDEX 01 01:24:36
  TRACK 81 AUDIO
    TITLE "0:"
    INDEX 01 01:28:35
  TRACK 82 AUDIO
    TITLE "2:cjc114_4049"
    INDEX 01 01:28:72
  TRACK 83 AUDIO
    TITLE "0:"
    INDEX 01 01:30:18
  TRACK 84 AUDIO
    TITLE "3:cjc114_4050"
    INDEX 01 01:30:30
  TRACK 85 AUDIO
    TITLE "0:"
    INDEX 01 01:31:43
  TRACK 86 AUDIO
    TITLE "4:cjc114_4051"
    INDEX 01 01:31:57
  TRACK 87 AUDIO
    TITLE "0:"
    INDEX 01 01:34:03
